General

Format                           : MPEG-4
Format profile                   : Base Media
Codec ID                         : isom
File size                        : 60.2 MiB
Duration                         : 4mn 28s
Overall bit rate                 : 1 880 Kbps
Encoded date                     : UTC 2012-06-15 00:42:08
Tagged date                      : UTC 2012-06-15 00:42:08

Video
ID                               : 1
Format                           : AVC
Format/Info                      : Advanced Video Codec
Format profile                   : High@L3.0
Format settings, CABAC           : Yes
Format settings, ReFrames        : 2 frames
Codec ID                         : avc1
Codec ID/Info                    : Advanced Video Coding
Duration                         : 4mn 28s
Bit rate mode                    : Variable
Bit rate                         : 1 795 Kbps
Maximum bit rate                 : 3 822 Kbps
Width                            : 720 pixels
Height                           : 480 pixels
Display aspect ratio             : 16:9
Original display aspect ratio    : 16:9
Frame rate mode                  : Constant
Frame rate                       : 24.000 fps
Standard                         : NTSC
Color space                      : YUV
Chroma subsampling               : 4:2:0
Bit depth                        : 8 bits
Scan type                        : Progressive
Bits/(Pixel*Frame)               : 0.216
Stream size                      : 57.8 MiB (96%)


Audio
ID                               : 2
Format                           : AAC
Format/Info                      : Advanced Audio Codec
Format profile                   : LC
Codec ID                         : 40
Duration                         : 4mn 28s
Bit rate mode                    : Variable
Bit rate                         : 69.0 Kbps
Maximum bit rate                 : 82.5 Kbps
Channel(s)                       : 2 channels
Channel positions                : Front: L R
Sampling rate                    : 44.1 KHz
Compression mode                 : Lossy
Stream size                      : 2.21 MiB (4%)